<?xml version="1.0" encoding="UTF-8"?>
<svg width="284px" height="184px" viewBox="0 0 284 184" version="1.1" xmlns="http://www.w3.org/2000/svg" xmlns:xlink="http://www.w3.org/1999/xlink">
    <!-- Generator: Sketch 61.2 (89653) - https://sketch.com -->
    <title>编组 27</title>
    <desc>Created with Sketch.</desc>
    <g id="页面-1" stroke="none" stroke-width="1" fill="none" fill-rule="evenodd">
        <g id="资源" transform="translate(-116.000000, -481.000000)">
            <g id="编组-27" transform="translate(116.000000, 481.000000)">
                <path d="M2,0 L282,0 C283.104569,-2.02906125e-16 284,0.8954305 284,2 L284,184 L284,184 L0,184 L0,2 C-1.3527075e-16,0.8954305 0.8954305,2.02906125e-16 2,0 Z" id="蒙版" fill="#FDAB03"></path>
                <g id="编组-17备份" transform="translate(99.000000, 49.000000)">
                    <rect id="矩形" x="0" y="0" width="86.4" height="86.4"></rect>
                    <g id="编组-6" transform="translate(7.200000, 7.200000)">
                        <polygon id="矩形" fill="#FDAB03" style="mix-blend-mode: multiply;" opacity="0.6539016" points="29.0181818 50.4 44.1818182 50.4 48 73.2 25.2 73.2"></polygon>
                        <rect id="矩形" fill="#FFDC6F" x="0" y="0" width="72" height="55.2" rx="2.4"></rect>
                        <path d="M2.4,0 L69.6,0 C70.9254834,-2.4348735e-16 72,1.0745166 72,2.4 L72,45.6 L72,45.6 L0,45.6 L0,2.4 C-6.0641411e-16,1.0745166 1.0745166,-1.08878028e-15 2.4,0 Z" id="矩形" fill="#FDCC13"></path>
                        <circle id="椭圆形" fill="#FFFFFF" cx="36" cy="50.4" r="2.4"></circle>
                        <g id="sketch" transform="translate(20.400000, 10.800000)" fill="#FFFFFF" fill-rule="nonzero">
                            <path d="M30.768375,9.34157813 L23.4413438,0.18459375 C23.3980313,0.130453125 23.3294531,0.09796875 23.260875,0.09796875 L8.419125,0.09796875 C8.35054688,0.09796875 8.28196875,0.130453125 8.23865625,0.18459375 L0.911625,9.34157813 C0.843046875,9.42820313 0.843046875,9.55453125 0.91884375,9.64115625 L15.66675,26.2262344 C15.7100625,26.2767656 15.7750313,26.3020313 15.84,26.3020313 C15.9049688,26.3020313 15.9663281,26.2731563 16.01325,26.2262344 L30.7611563,9.64115625 C30.8369531,9.55453125 30.8369531,9.42820313 30.768375,9.34157813 Z M20.6476875,2.16975 L21.8893125,7.00270313 L17.1068906,2.16975 L20.6476875,2.16975 Z M20.9436563,8.61248438 L10.7363438,8.61248438 L15.84,3.4546875 L20.9436563,8.61248438 L20.9436563,8.61248438 Z M11.0323125,2.16975 L14.5731094,2.16975 L9.78707813,7.00270313 L11.0323125,2.16975 Z M9.10490625,2.42240625 L7.51317188,8.61248437 L4.15284375,8.61248437 L9.10490625,2.42240625 L9.10490625,2.42240625 Z M4.38384375,10.4171719 L7.79109375,10.4171719 L12.3316875,19.3575937 L4.38384375,10.4171719 L4.38384375,10.4171719 Z M15.84,22.2739688 L9.81595313,10.4171719 L21.8604375,10.4171719 L15.84,22.2739688 Z M19.3447031,19.3575938 L23.8889063,10.4171719 L27.2961563,10.4171719 L19.3447031,19.3575938 Z M24.1668281,8.61248438 L22.5750938,2.42240625 L27.5271563,8.61248438 L24.1668281,8.61248438 L24.1668281,8.61248438 Z" id="形状"></path>
                        </g>
                        <path d="M26.2953317,68.2803565 L47.159798,68.2803565 L26.2953317,68.2803565 Z" id="路径-117" stroke="#FFFFFF" stroke-width="0.6"></path>
                    </g>
                </g>
            </g>
        </g>
    </g>
</svg>