<?xml version="1.0" encoding="UTF-8"?>
<svg width="284px" height="184px" viewBox="0 0 284 184" version="1.1" xmlns="http://www.w3.org/2000/svg" xmlns:xlink="http://www.w3.org/1999/xlink">
    <!-- Generator: Sketch 61.2 (89653) - https://sketch.com -->
    <title>编组 23</title>
    <desc>Created with Sketch.</desc>
    <g id="页面-1" stroke="none" stroke-width="1" fill="none" fill-rule="evenodd">
        <g id="资源" transform="translate(-1040.000000, -783.000000)">
            <g id="编组-23" transform="translate(1040.000000, 783.000000)">
                <path d="M2,0 L282,0 C283.104569,-2.02906125e-16 284,0.8954305 284,2 L284,184 L284,184 L0,184 L0,2 C-1.3527075e-16,0.8954305 0.8954305,2.02906125e-16 2,0 Z" id="蒙版备份-7" fill="#FF7C4B"></path>
                <g id="编组-21备份" transform="translate(99.000000, 49.000000)">
                    <rect id="矩形备份-28" x="0" y="0" width="86.4" height="86.4"></rect>
                    <g id="编组-12" transform="translate(7.200000, 7.200000)">
                        <g id="编组-6备份">
                            <polygon id="矩形" fill="#E75C29" points="29.0181818 50.4 44.1818182 50.4 48 73.2 25.2 73.2"></polygon>
                            <rect id="矩形" fill="#FFE7DD" x="0" y="0" width="72" height="55.2" rx="2.4"></rect>
                            <path d="M2.4,0 L69.6,0 C70.9254834,-2.4348735e-16 72,1.0745166 72,2.4 L72,45.6 L72,45.6 L0,45.6 L0,2.4 C-6.0641411e-16,1.0745166 1.0745166,-1.08878028e-15 2.4,0 Z" id="矩形" fill="#FFC6B0"></path>
                            <g id="编组-14" transform="translate(26.800000, 7.800000)">
                                <circle id="椭圆形" fill="#1CBCFE" cx="15.57" cy="15.39" r="5.13"></circle>
                                <path d="M10.44,20.52 L10.44,25.74 C10.3911636,28.5317378 8.11313667,30.78 5.31,30.78 C2.47677923,30.78 0.18,28.4832208 0.18,25.65 C0.18,22.8468029 2.42835915,20.5687382 5.22011177,20.5207717 L5.22,20.52 L10.44,20.52 Z" id="路径" fill="#0BCE82"></path>
                                <path d="M10.44,10.26 L10.44,20.52 L5.13,20.52 L5.13,20.52 C2.29677923,20.52 0,18.2232208 0,15.39 C0,12.5567792 2.29677923,10.26 5.13,10.26 L5.22006872,10.2607748 L5.22006872,10.2607748 L5.22,10.26 L10.44,10.26 Z" id="路径" fill="#A259FF"></path>
                                <path d="M10.44,0 L10.44,10.26 L5.13,10.26 L5.13,10.26 C2.29677923,10.26 0,7.96322077 0,5.13 C0,2.29677923 2.29677923,0 5.13,0 L5.22006872,0.000774771735 L5.22006872,0.000774771735 L5.22,0 L10.44,0 Z" id="路径备份" fill="#F14F1E"></path>
                                <path d="M20.88,0 L20.88,10.26 L15.57,10.26 L15.57,10.26 C12.7367792,10.26 10.44,7.96322077 10.44,5.13 C10.44,2.29677923 12.7367792,0 15.57,0 L15.6600687,0.000774771735 L15.6600687,0.000774771735 L15.66,0 L20.88,0 Z" id="路径备份-2" fill="#FF7262" transform="translate(15.660000, 5.130000) scale(-1, 1) translate(-15.660000, -5.130000) "></path>
                            </g>
                            <circle id="椭圆形" fill="#FFFFFF" cx="36" cy="50.4" r="2.4"></circle>
                            <path d="M26.0667572,68.2803565 L47.0731352,68.2803565 L26.0667572,68.2803565 Z" id="路径-117" stroke="#FFFFFF" stroke-width="0.6"></path>
                        </g>
                    </g>
                </g>
            </g>
        </g>
    </g>
</svg>