<svg width="284" height="184" xmlns="http://www.w3.org/2000/svg"><g fill="none" fill-rule="evenodd"><path fill="#F52929" d="M0 0h284v184H0z"/><path d="M172.125 96.594l13.125 7.5v15l-13.125 7.5-13.125-7.5v-15l13.125-7.5zm-9.12 10.32c-.489.854-.231 1.93.566 2.476l.13.082 6.549 3.106v6.516a1.875 1.875 0 003.744.146l.006-.146v-6.515l6.555-3.107a1.875 1.875 0 00-1.723-3.327l-.137.071-6.57 2.934-6.563-2.934a1.875 1.875 0 00-2.558.698zm-60.328.157c4.046 5.476 8.76 7.935 14.846 8.037l.399.003h35.084a18.01 18.01 0 00.693 5.469l-35.777-.001c-8.004 0-14.838-3.674-19.656-10.403l-.266-.377 4.677-2.728zm36.97-21.505a2.249 2.249 0 012.249 2.25v8.994a2.249 2.249 0 01-2.249 2.248h-4.927a2.249 2.249 0 01-2.249-2.248v-8.995a2.25 2.25 0 012.249-2.249h4.927zm-25.592 0a2.249 2.249 0 012.248 2.25v8.994a2.249 2.249 0 01-2.248 2.248h-4.928a2.248 2.248 0 01-2.248-2.248v-8.995a2.249 2.249 0 012.248-2.249h4.928zM155.987 64c8.003 0 14.837 3.674 19.656 10.403l.265.377-4.677 2.727c-4.046-5.476-8.76-7.934-14.846-8.036l-.398-.003h-38.065c-6.146 0-10.905 2.341-14.98 7.687l-.266.352L98 74.78c4.743-6.841 11.518-10.64 19.478-10.776l.444-.004h38.065z" fill="#FFF"/></g></svg>