<?xml version="1.0" standalone="no"?><!DOCTYPE svg PUBLIC "-//W3C//DTD SVG 1.1//EN" "http://www.w3.org/Graphics/SVG/1.1/DTD/svg11.dtd"><svg t="1651399550908" class="icon" viewBox="0 0 1024 1024" version="1.1" xmlns="http://www.w3.org/2000/svg" p-id="5632" xmlns:xlink="http://www.w3.org/1999/xlink" width="200" height="200"><defs><style type="text/css">@font-face { font-family: feedback-iconfont; src: url("//at.alicdn.com/t/font_1031158_u69w8yhxdu.woff2?t=1630033759944") format("woff2"), url("//at.alicdn.com/t/font_1031158_u69w8yhxdu.woff?t=1630033759944") format("woff"), url("//at.alicdn.com/t/font_1031158_u69w8yhxdu.ttf?t=1630033759944") format("truetype"); }
</style></defs><path d="M512 512m-448 0a448 448 0 1 0 896 0 448 448 0 1 0-896 0Z" fill="#6785F4" p-id="5633"></path><path d="M512 256c141.385 0 256 114.615 256 256S653.385 768 512 768H292c-19.882 0-36-16.118-36-36V512c0-141.385 114.615-256 256-256z" fill="#FFFFFF" p-id="5634"></path><path d="M256 576c12.916 51.583 34.916 92.916 66 124 31.084 31.084 73.084 53.75 126 68H292c-19.882 0-36-16.118-36-36V576z" fill="#E1E8FE" p-id="5635"></path><path d="M384 548m22 0l136 0q22 0 22 22l0 0q0 22-22 22l-136 0q-22 0-22-22l0 0q0-22 22-22Z" fill="#D3DAEF" p-id="5636"></path><path d="M384 436m22 0l212 0q22 0 22 22l0 0q0 22-22 22l-212 0q-22 0-22-22l0 0q0-22 22-22Z" fill="#D3DAEF" p-id="5637"></path></svg>