<?xml version="1.0" standalone="no"?><!DOCTYPE svg PUBLIC "-//W3C//DTD SVG 1.1//EN" "http://www.w3.org/Graphics/SVG/1.1/DTD/svg11.dtd"><svg t="1651978561184" class="icon" viewBox="0 0 1049 1024" version="1.1" xmlns="http://www.w3.org/2000/svg" p-id="4134" xmlns:xlink="http://www.w3.org/1999/xlink" width="204.8828125" height="200"><defs><style type="text/css">@font-face { font-family: feedback-iconfont; src: url("//at.alicdn.com/t/font_1031158_u69w8yhxdu.woff2?t=1630033759944") format("woff2"), url("//at.alicdn.com/t/font_1031158_u69w8yhxdu.woff?t=1630033759944") format("woff"), url("//at.alicdn.com/t/font_1031158_u69w8yhxdu.ttf?t=1630033759944") format("truetype"); }
</style></defs><path d="M515.28126 45.14948c270.2851 0 489.42526 219.14016 489.42526 489.42526S785.56636 1024 515.28126 1024 25.856 804.85984 25.856 534.57474 244.99616 45.14948 515.28126 45.14948z" fill="#F5A73D" p-id="4135"></path><path d="M530.942868 274.812283c153.557175 0.122356 277.871191 124.681085 277.748835 278.238261a278.299438 278.299438 0 0 1-169.585852 255.847054c-141.321544 59.709882-304.422512-6.362528-364.132394-147.684072-14.560401-34.259768-22.024137-71.211375-21.90178-108.407695v-5.138965h272.732226V274.93464c1.712988-0.122356 3.425977-0.122356 5.138965-0.122357z" fill="#FFFFFF" p-id="4136"></path><path d="M502.678559 243.978492h5.138966v283.010157H224.807368v-5.138966c-0.122356-37.19632 7.341379-73.903214 21.779424-108.162982 13.94862-33.036205 34.137412-63.013502 59.465169-88.341259 25.327757-25.327757 55.305054-45.638905 88.34126-59.587526 34.259768-14.438045 71.089019-21.90178 108.285338-21.779424z" fill="#FDEACA" p-id="4137"></path><path d="M288.310296 411.117218h41.234078v115.993787h-41.234078zM357.441614 464.464572h41.234078v62.524077H357.441614zM426.572932 433.63078h41.234078v93.480225h-41.234078z" fill="#F5A73D" p-id="4138"></path><path d="M599.095336 495.787788c-1.101207 0-2.202414 0.611782-2.569483 1.712989-0.489425 1.101207-0.122356 2.202414 0.611782 3.058908l58.853387 57.874537-133.49074 114.892579c-14.805114 12.725057-36.706894 12.847413-51.634364 0.122357l-34.626838-29.487872a87.631593 87.631593 0 0 0-101.433385-8.687299l-61.667582 36.584539 28.019596 44.415342 63.135858-37.441033c14.560401-8.687298 33.036205-7.096666 46.005975 3.915403l50.043732 42.579997a55.831187 55.831187 0 0 0 72.679652-0.244712L689.027227 590.858645 737.725041 638.699964c0.856494 0.734138 1.957701 0.978851 3.058907 0.611782 0.978851-0.367069 1.712988-1.468276 1.712989-2.569483v-138.262636c0-0.734138-0.244713-1.468276-0.856494-1.957701a2.887609 2.887609 0 0 0-1.957701-0.856494H599.095336z" fill="#F5A73D" p-id="4139"></path></svg>