<?xml version="1.0" encoding="iso-8859-1"?>
<!-- Generator: Adobe Illustrator 23.0.2, SVG Export Plug-In . SVG Version: 6.00 Build 0)  -->
<svg version="1.1" id="&#x56FE;&#x5C42;_1" xmlns="http://www.w3.org/2000/svg" xmlns:xlink="http://www.w3.org/1999/xlink" x="0px"
	 y="0px" viewBox="0 0 500 500" style="enable-background:new 0 0 500 500;" xml:space="preserve">
<g>
	<g>
		<defs>
			<path id="XMLID_159_" d="M384.994,334.313H88.426l70.403-47.825V162.756c0-6.068,4.919-10.987,10.987-10.987h215.178
				c6.068,0,10.987,4.919,10.987,10.987v160.57C395.981,329.394,391.062,334.313,384.994,334.313z"/>
		</defs>
		<use xlink:href="#XMLID_159_"  style="overflow:visible;fill:#FF6666;"/>
		<clipPath id="XMLID_2_">
			<use xlink:href="#XMLID_159_"  style="overflow:visible;"/>
		</clipPath>
		<rect x="99.194" y="100.561" style="clip-path:url(#XMLID_2_);fill:#FFFFFF;" width="333.077" height="85.506"/>
	</g>
	<circle style="fill:#F06361;" cx="314.122" cy="169.828" r="7.244"/>
	<circle style="fill:#F8BB3F;" cx="340.752" cy="169.828" r="7.244"/>
	<circle style="fill:#2FC843;" cx="367.382" cy="169.828" r="7.244"/>
	<path style="fill:#FFFFFF;" d="M289.028,257.846h58.967c0,32.349-26.619,58.967-58.967,58.967s-58.967-26.619-58.967-58.967
		s26.619-58.967,58.967-58.967c0.021,0,0.042,0,0.062,0L289.028,257.846z"/>
	<path style="fill:#FFFFFF;" d="M292.179,254.831l-0.092-58.967c0.031,0,0.061,0,0.092,0c32.349,0,58.967,26.619,58.967,58.967
		H292.179z"/>
	<rect x="180.226" y="200.491" style="fill:#FFFFFF;" width="31.393" height="31.393"/>
	<rect x="180.226" y="244.261" style="fill:#FFFFFF;" width="31.393" height="31.393"/>
	<path style="fill:#FFFFFF;" d="M231.923,293.583h-50.698c-0.549,0-0.999-0.449-0.999-0.999v-0.623c0-0.549,0.449-0.999,0.999-0.999
		h50.698c0.549,0,0.999,0.449,0.999,0.999v0.623C232.922,293.134,232.472,293.583,231.923,293.583z"/>
	<path style="fill:#FFFFFF;" d="M231.923,302.2h-50.698c-0.549,0-0.999-0.449-0.999-0.999v-0.623c0-0.549,0.449-0.999,0.999-0.999
		h50.698c0.549,0,0.999,0.449,0.999,0.999v0.623C232.922,301.751,232.472,302.2,231.923,302.2z"/>
	<path style="fill:#FFFFFF;" d="M204.829,310.817h-23.605c-0.549,0-0.999-0.449-0.999-0.999v-0.623c0-0.549,0.449-0.999,0.999-0.999
		h23.605c0.549,0,0.999,0.449,0.999,0.999v0.623C205.828,310.367,205.379,310.817,204.829,310.817z"/>
	<path style="fill:#232323;" d="M390.015,325.994H188.747c-10.318,0-18.712-8.394-18.712-18.711V162.92
		c0-10.318,8.394-18.712,18.712-18.712h201.269c10.317,0,18.711,8.394,18.711,18.712v144.364
		C408.726,317.6,400.332,325.994,390.015,325.994z M188.747,146.831c-8.872,0-16.088,7.217-16.088,16.088v144.364
		c0,8.871,7.217,16.087,16.088,16.087h201.269c8.871,0,16.087-7.217,16.087-16.087V162.92c0-8.872-7.217-16.088-16.087-16.088
		H188.747z"/>
</g>
</svg>
