<?xml version="1.0" standalone="no"?><!DOCTYPE svg PUBLIC "-//W3C//DTD SVG 1.1//EN" "http://www.w3.org/Graphics/SVG/1.1/DTD/svg11.dtd"><svg t="1644309075837" class="icon" viewBox="0 0 1024 1024" version="1.1" xmlns="http://www.w3.org/2000/svg" p-id="7711" xmlns:xlink="http://www.w3.org/1999/xlink" width="200" height="200"><defs><style type="text/css"></style></defs><path d="M116.363636 139.636364m-23.272727 0a23.272727 23.272727 0 1 0 46.545455 0 23.272727 23.272727 0 1 0-46.545455 0Z" p-id="7712" fill="#ffffff"></path><path d="M209.454545 139.636364m-23.272727 0a23.272727 23.272727 0 1 0 46.545455 0 23.272727 23.272727 0 1 0-46.545455 0Z" p-id="7713" fill="#ffffff"></path><path d="M302.545455 139.636364m-23.272728 0a23.272727 23.272727 0 1 0 46.545455 0 23.272727 23.272727 0 1 0-46.545455 0Z" p-id="7714" fill="#ffffff"></path><path d="M104.727273 302.545455h139.636363c6.981818 0 11.636364-4.654545 11.636364-11.636364s-4.654545-11.636364-11.636364-11.636364h-139.636363c-6.981818 0-11.636364 4.654545-11.636364 11.636364s4.654545 11.636364 11.636364 11.636364zM453.818182 768h-139.636364c-6.981818 0-11.636364 4.654545-11.636363 11.636364s4.654545 11.636364 11.636363 11.636363h139.636364c6.981818 0 11.636364-4.654545 11.636363-11.636363s-4.654545-11.636364-11.636363-11.636364zM162.909091 360.727273c0 6.981818 4.654545 11.636364 11.636364 11.636363h139.636363c6.981818 0 11.636364-4.654545 11.636364-11.636363s-4.654545-11.636364-11.636364-11.636364h-139.636363c-6.981818 0-11.636364 4.654545-11.636364 11.636364zM802.909091 349.090909h-139.636364c-6.981818 0-11.636364 4.654545-11.636363 11.636364s4.654545 11.636364 11.636363 11.636363h139.636364c6.981818 0 11.636364-4.654545 11.636364-11.636363s-4.654545-11.636364-11.636364-11.636364zM384 581.818182h139.636364c6.981818 0 11.636364-4.654545 11.636363-11.636364s-4.654545-11.636364-11.636363-11.636363h-139.636364c-6.981818 0-11.636364 4.654545-11.636364 11.636363s4.654545 11.636364 11.636364 11.636364zM640 418.909091h-139.636364c-6.981818 0-11.636364 4.654545-11.636363 11.636364s4.654545 11.636364 11.636363 11.636363h139.636364c6.981818 0 11.636364-4.654545 11.636364-11.636363s-4.654545-11.636364-11.636364-11.636364zM325.818182 570.181818c0-6.981818-4.654545-11.636364-11.636364-11.636363h-139.636363c-6.981818 0-11.636364 4.654545-11.636364 11.636363s4.654545 11.636364 11.636364 11.636364h139.636363c6.981818 0 11.636364-4.654545 11.636364-11.636364zM384 372.363636h69.818182c6.981818 0 11.636364-4.654545 11.636363-11.636363s-4.654545-11.636364-11.636363-11.636364h-69.818182c-6.981818 0-11.636364 4.654545-11.636364 11.636364s4.654545 11.636364 11.636364 11.636363zM523.636364 372.363636h69.818181c6.981818 0 11.636364-4.654545 11.636364-11.636363s-4.654545-11.636364-11.636364-11.636364h-69.818181c-6.981818 0-11.636364 4.654545-11.636364 11.636364s4.654545 11.636364 11.636364 11.636363zM244.363636 628.363636h-69.818181c-6.981818 0-11.636364 4.654545-11.636364 11.636364s4.654545 11.636364 11.636364 11.636364h69.818181c6.981818 0 11.636364-4.654545 11.636364-11.636364s-4.654545-11.636364-11.636364-11.636364zM186.181818 500.363636c0-6.981818-4.654545-11.636364-11.636363-11.636363h-69.818182c-6.981818 0-11.636364 4.654545-11.636364 11.636363s4.654545 11.636364 11.636364 11.636364h69.818182c6.981818 0 11.636364-4.654545 11.636363-11.636364zM244.363636 768h-69.818181c-6.981818 0-11.636364 4.654545-11.636364 11.636364s4.654545 11.636364 11.636364 11.636363h69.818181c6.981818 0 11.636364-4.654545 11.636364-11.636363s-4.654545-11.636364-11.636364-11.636364zM442.181818 430.545455c0-6.981818-4.654545-11.636364-11.636363-11.636364h-256c-6.981818 0-11.636364 4.654545-11.636364 11.636364s4.654545 11.636364 11.636364 11.636363h256c6.981818 0 11.636364-4.654545 11.636363-11.636363zM570.181818 628.363636h-256c-6.981818 0-11.636364 4.654545-11.636363 11.636364s4.654545 11.636364 11.636363 11.636364h256c6.981818 0 11.636364-4.654545 11.636364-11.636364s-4.654545-11.636364-11.636364-11.636364zM162.909091 709.818182c0 6.981818 4.654545 11.636364 11.636364 11.636363h256c6.981818 0 11.636364-4.654545 11.636363-11.636363s-4.654545-11.636364-11.636363-11.636364h-256c-6.981818 0-11.636364 4.654545-11.636364 11.636364z" p-id="7715" fill="#ffffff"></path><path d="M954.181818 46.545455H69.818182C30.254545 46.545455 0 76.8 0 116.363636v698.181819c0 39.563636 30.254545 69.818182 69.818182 69.818181h535.272727c41.890909 55.854545 109.381818 93.090909 186.181818 93.090909 79.127273 0 146.618182-39.563636 190.836364-97.745454 25.6-11.636364 41.890909-34.909091 41.890909-65.163636V116.363636c0-39.563636-30.254545-69.818182-69.818182-69.818181zM46.545455 116.363636c0-13.963636 9.309091-23.272727 23.272727-23.272727h884.363636c13.963636 0 23.272727 9.309091 23.272727 23.272727v69.818182H46.545455V116.363636z m744.727272 814.545455c-102.4 0-186.181818-83.781818-186.181818-186.181818s83.781818-186.181818 186.181818-186.181818 186.181818 83.781818 186.181818 186.181818-83.781818 186.181818-186.181818 186.181818z m0-418.909091c-111.709091 0-207.127273 79.127273-228.072727 186.181818h-62.836364c-6.981818 0-11.636364 4.654545-11.636363 11.636364s4.654545 11.636364 11.636363 11.636363h60.509091c0 6.981818-2.327273 16.290909-2.327272 23.272728s0 16.290909 2.327272 23.272727h-37.236363c-6.981818 0-11.636364 4.654545-11.636364 11.636364s4.654545 11.636364 11.636364 11.636363h39.563636c2.327273 16.290909 9.309091 32.581818 13.963636 46.545455H69.818182c-13.963636 0-23.272727-9.309091-23.272727-23.272727V232.727273h930.90909v372.363636c-41.890909-55.854545-109.381818-93.090909-186.181818-93.090909z" p-id="7716" fill="#ffffff"></path><path d="M875.054545 733.090909c4.654545-11.636364 9.309091-23.272727 9.309091-34.909091 0-39.563636-30.254545-69.818182-69.818181-69.818182 0-13.963636-9.309091-23.272727-23.272728-23.272727s-23.272727 9.309091-23.272727 23.272727h-46.545455c-13.963636 0-23.272727 9.309091-23.272727 23.272728s9.309091 23.272727 23.272727 23.272727v139.636364c-13.963636 0-23.272727 9.309091-23.272727 23.272727s9.309091 23.272727 23.272727 23.272727h46.545455c0 13.963636 9.309091 23.272727 23.272727 23.272727s23.272727-9.309091 23.272728-23.272727h23.272727c39.563636 0 69.818182-30.254545 69.818182-69.818182 0-25.6-13.963636-46.545455-32.581819-58.181818zM768 674.909091h46.545455c13.963636 0 23.272727 9.309091 23.272727 23.272727s-9.309091 23.272727-23.272727 23.272727h-46.545455v-46.545454z m69.818182 139.636364h-69.818182v-46.545455h69.818182c13.963636 0 23.272727 9.309091 23.272727 23.272727s-9.309091 23.272727-23.272727 23.272728z" p-id="7717" fill="#ffffff"></path></svg>